<svg width="39" height="37" viewBox="0 0 39 37" fill="none" xmlns="http://www.w3.org/2000/svg">
<path fill-rule="evenodd" clip-rule="evenodd" d="M32.6838 29.0546C35.3842 26.2493 37 22.591 37 18.6533C37 10.0787 29.3379 2.82837 19.5 2.82837C9.66215 2.82837 2 10.0787 2 18.6533C2 23.0023 3.97104 27.0106 7.1973 29.905C8.23688 26.18 12.0332 19.1104 19.7546 19.1104C28.6787 19.1104 31.713 25.069 32.6838 29.0546ZM19.5 36.4782C30.2696 36.4782 39 28.4977 39 18.6533C39 8.80886 30.2696 0.828369 19.5 0.828369C8.73045 0.828369 0 8.80886 0 18.6533C0 28.4977 8.73045 36.4782 19.5 36.4782ZM27 10.4267C27 14.213 23.6421 17.2824 19.5 17.2824C15.3579 17.2824 12 14.213 12 10.4267C12 6.64034 15.3579 3.57092 19.5 3.57092C23.6421 3.57092 27 6.64034 27 10.4267Z" fill="black"/>
</svg>
