<svg width="40" height="37" viewBox="0 0 40 37" fill="none" xmlns="http://www.w3.org/2000/svg">
<path d="M6.51855 4.64795H37.0613C38.4721 4.64795 39.4394 6.06937 38.9218 7.3818L33.0921 22.1616C32.7907 22.9257 32.0529 23.4278 31.2316 23.4278H18.0692C17.341 23.4278 16.6704 23.032 16.3184 22.3946L6.51855 4.64795Z" fill="black"/>
<path d="M5.33334 3.69309L7.40742 6.23951H10.6667L5.92084 1.42443C5.54496 1.04308 5.03187 0.828369 4.49642 0.828369H1.43236C0.64129 0.828369 0 1.46966 0 2.26073C0 3.0518 0.64129 3.69309 1.43236 3.69309H5.33334Z" fill="black"/>
<path d="M37.99 27.5812L18.952 27.8434C17.5378 27.8629 16.5507 26.4484 17.0569 25.1278L18.0745 22.4729H16.593L15.0697 27.1778C14.6514 28.4696 15.6146 29.7939 16.9724 29.7939H17.4819H38.0052C38.6162 29.7939 39.1116 29.2985 39.1116 28.6875C39.1116 28.0705 38.6069 27.5727 37.99 27.5812Z" fill="black"/>
<ellipse cx="16.2971" cy="34.2501" rx="2.07447" ry="2.22812" fill="black"/>
<ellipse cx="37.0374" cy="34.2501" rx="2.07447" ry="2.22812" fill="black"/>
</svg>
